<?xml version="1.0" standalone="no"?>
<!DOCTYPE svg PUBLIC "-//W3C//DTD SVG 20010904//EN"
 "http://www.w3.org/TR/2001/REC-SVG-20010904/DTD/svg10.dtd">
<svg version="1.0" xmlns="http://www.w3.org/2000/svg"
 width="1280.000000pt" height="904.000000pt" viewBox="0 0 1280.000000 904.000000"
 preserveAspectRatio="xMidYMid meet">
<metadata>
Created by potrace 1.15, written by Peter Selinger 2001-2017
</metadata>
<g transform="translate(0.000000,904.000000) scale(0.100000,-0.100000)"
fill="#ef6c00" stroke="none">
<path d="M6040 8579 c-860 -68 -1610 -360 -2229 -867 -139 -113 -406 -376
-523 -514 -548 -645 -857 -1387 -953 -2288 -22 -209 -30 -623 -16 -838 57
-872 309 -1578 779 -2181 609 -782 1477 -1262 2532 -1400 273 -36 458 -44 849
-38 376 6 485 12 771 48 412 51 858 161 1145 281 l80 34 3 307 c1 169 0 307
-2 307 -3 0 -45 -18 -95 -39 -384 -170 -907 -297 -1396 -340 -518 -46 -940
-35 -1358 35 -831 139 -1511 547 -1997 1200 -84 112 -211 318 -273 440 -148
295 -270 688 -317 1029 -6 44 -13 91 -15 104 -38 231 -38 859 0 1115 3 17 12
77 20 134 162 1102 859 2086 1820 2573 256 129 452 199 738 263 618 139 1441
99 2047 -98 352 -114 676 -289 942 -509 129 -105 330 -312 427 -437 371 -477
573 -1026 621 -1685 25 -342 -2 -769 -66 -1058 -95 -430 -268 -773 -508 -1012
-129 -128 -225 -190 -370 -240 -138 -47 -272 -62 -383 -42 -136 25 -181 53
-318 192 -88 90 -135 129 -175 148 -212 101 -457 65 -616 -91 -104 -101 -148
-206 -146 -352 2 -222 151 -405 379 -464 114 -30 278 -14 374 35 l41 21 101
-26 c212 -55 509 -57 741 -5 455 101 845 392 1161 864 236 353 383 771 452
1285 26 192 26 824 0 1015 -91 677 -316 1226 -697 1705 -104 130 -403 430
-531 532 -455 363 -924 596 -1486 737 -150 37 -392 83 -513 96 -30 3 -95 10
-145 16 -123 14 -753 20 -895 8z"/>
<path d="M8029 6579 c-15 -17 -31 -47 -34 -67 -4 -20 -8 -42 -10 -48 -2 -6
-136 -26 -316 -48 -173 -21 -339 -42 -369 -47 -30 -5 -237 -31 -460 -59 -508
-63 -708 -89 -740 -94 -14 -3 -137 -19 -275 -35 -137 -17 -284 -35 -325 -41
-41 -6 -187 -24 -325 -41 -137 -16 -257 -32 -265 -34 -8 -2 -89 -13 -180 -24
-91 -11 -239 -30 -330 -41 -91 -11 -237 -29 -325 -40 -248 -30 -256 -32 -263
-48 -3 -9 0 -47 7 -86 24 -131 50 -270 76 -406 14 -74 32 -171 40 -215 26
-147 34 -189 55 -300 12 -60 32 -171 46 -245 14 -74 36 -193 50 -265 13 -71
39 -211 57 -310 l33 -180 1808 -3 1809 -2 -7 -128 c-4 -70 -9 -151 -12 -179
l-6 -53 -1793 -2 -1794 -3 -31 -30 c-28 -26 -31 -35 -28 -79 3 -45 7 -53 37
-73 l34 -23 1868 2 1867 3 26 24 c18 17 26 37 30 75 9 93 36 429 46 591 6 88
13 171 15 185 4 22 23 275 42 568 3 50 9 92 13 92 4 0 10 73 13 163 5 140 27
456 42 597 2 25 11 149 20 275 9 127 18 254 22 282 7 63 -15 54 263 108 253
49 499 103 533 117 31 12 57 54 57 90 0 41 -36 86 -77 98 -39 11 -87 3 -643
-114 l-105 -22 -7 50 c-9 69 -40 96 -110 96 -43 0 -54 -4 -79 -31z m-60 -431
c-4 -51 -10 -115 -13 -143 -3 -27 -10 -122 -16 -210 -6 -88 -12 -180 -15 -205
-2 -25 -9 -112 -15 -195 -7 -82 -15 -186 -19 -230 l-6 -80 -320 0 -320 0 -7
180 c-13 332 -26 870 -22 875 3 2 69 12 147 21 182 22 368 46 482 63 145 22
132 31 124 -76z m-979 -165 c0 -71 7 -299 15 -507 8 -208 12 -383 9 -387 -3
-5 -247 -8 -542 -6 l-537 2 -12 145 c-7 80 -19 260 -27 400 -9 140 -18 274
-21 297 -7 50 -40 42 340 88 160 19 340 42 400 51 222 31 301 42 338 43 l37 1
0 -127z m-1340 -55 c0 -37 31 -504 40 -601 5 -61 10 -142 10 -179 l0 -68 -397
3 -398 2 -7 70 c-34 362 -59 678 -53 683 2 2 144 21 317 43 172 22 338 44 368
48 85 13 120 13 120 -1z m-1030 -166 c0 -26 4 -83 9 -127 6 -44 12 -111 15
-150 4 -38 10 -124 16 -190 5 -66 10 -141 10 -167 l0 -48 -242 3 -243 2 -17
90 c-9 50 -26 140 -37 200 -11 61 -31 167 -44 237 l-23 126 30 6 c17 3 87 12
156 21 69 9 166 22 215 29 50 8 105 14 123 15 32 1 32 1 32 -47z m84 -1004 c4
-62 14 -176 21 -253 8 -77 17 -185 20 -240 3 -55 8 -110 11 -123 l4 -22 -197
2 -198 3 -6 35 c-4 19 -19 100 -34 180 -15 80 -35 190 -45 245 -10 55 -25 135
-34 177 -9 42 -16 84 -16 93 0 13 30 15 234 15 l233 0 7 -112z m1020 50 c3
-35 13 -175 21 -313 9 -137 18 -278 20 -312 l5 -63 -393 0 -393 0 -13 158 c-7
86 -16 195 -21 242 -5 47 -12 137 -15 200 -4 63 -9 123 -11 133 -5 16 18 17
394 17 l399 0 7 -62z m1300 -10 c3 -40 8 -209 12 -375 l6 -303 -524 0 -523 0
-2 33 c-8 117 -36 557 -40 630 l-5 87 535 0 535 0 6 -72z m846 50 c0 -13 -4
-61 -10 -108 -5 -47 -12 -130 -16 -185 -3 -55 -11 -174 -18 -265 l-11 -165
-271 -3 -272 -2 -6 142 c-3 79 -8 248 -12 376 l-6 232 311 0 311 0 0 -22z"/>
<path d="M4810 3025 c-115 -33 -212 -112 -263 -214 -29 -59 -32 -74 -32 -156
0 -78 4 -97 28 -146 43 -88 98 -143 185 -186 74 -37 79 -38 187 -38 105 0 114
2 179 34 89 44 150 105 188 189 26 57 31 80 31 147 0 68 -4 90 -30 147 -40 87
-104 150 -196 194 -89 42 -191 53 -277 29z"/>
</g>
</svg>
